<?xml version="1.0" encoding="UTF-8"?>
<!DOCTYPE svg PUBLIC "-//W3C//DTD SVG 1.1//EN" "http://www.w3.org/Graphics/SVG/1.1/DTD/svg11.dtd">
<!-- Creator: CorelDRAW 2017 -->
<svg xmlns="http://www.w3.org/2000/svg" xml:space="preserve" width="4.43891in" height="0.888465in" version="1.1" style="shape-rendering:geometricPrecision; text-rendering:geometricPrecision; image-rendering:optimizeQuality; fill-rule:evenodd; clip-rule:evenodd"
viewBox="0 0 2317 464"
 xmlns:xlink="http://www.w3.org/1999/xlink">
 <defs>
  <style type="text/css">
   <![CDATA[
    .fil1 {fill:#FEFEFE;fill-rule:nonzero}
    .fil2 {fill:#373435;fill-rule:nonzero}
    .fil0 {fill:#F58634;fill-rule:nonzero}
   ]]>
  </style>
 </defs>
 <g id="Layer_x0020_1">
  <metadata id="CorelCorpID_0Corel-Layer"/>
  <g id="_1665604523824">
   <path class="fil0" d="M1130 362c-40,0 -72,-13 -96,-38 -24,-25 -36,-55 -36,-88 0,-36 12,-67 37,-91 25,-24 57,-36 97,-36 40,0 72,12 96,36 24,24 36,54 36,90 0,36 -12,67 -37,91 -25,24 -57,36 -98,36z"/>
   <path class="fil1" d="M1131 303c15,0 24,-8 27,-23 3,-15 5,-31 5,-48 0,-23 -2,-39 -7,-49 -5,-10 -13,-15 -25,-15 -11,0 -19,5 -24,16 -5,10 -8,27 -8,51 0,28 3,46 8,55 5,9 13,14 23,14z"/>
   <path class="fil0" d="M988 113l-74 83 82 160 -98 0 -46 -96 -26 30 0 67 -90 0 0 -326 90 0 0 131c0,4 0,18 0,44 6,-8 11,-15 17,-22l61 -70 84 0z"/>
   <polygon class="fil0" points="687,113 687,356 592,356 592,113 "/>
   <polygon class="fil0" points="687,20 687,95 592,95 592,20 "/>
   <path class="fil0" d="M466 269l89 6c-5,24 -19,44 -40,61 -22,17 -51,25 -87,25 -41,0 -74,-12 -98,-35 -24,-24 -37,-53 -37,-88 0,-36 12,-67 36,-92 24,-25 56,-37 96,-37 39,0 70,12 94,35 24,24 36,56 36,96 0,3 0,8 0,14l-162 0c0,15 3,27 8,34 5,7 15,11 29,11 21,0 33,-10 37,-30z"/>
   <path class="fil1" d="M459 235c0,-42 -3,-70 -10,-84 -6,-14 -14,-22 -24,-22 -22,0 -34,35 -34,105l67 0z"/>
   <polygon class="fil0" points="2030,453 181,464 155,359 128,233 94,281 94,356 0,356 0,30 94,30 94,164 184,30 274,30 192,149 283,364 2024,373 "/>
   <path class="fil2" d="M1564 233l46 12c-10,38 -27,67 -52,87 -25,20 -56,30 -92,30 -38,0 -68,-8 -92,-23 -24,-15 -42,-38 -54,-67 -12,-29 -19,-60 -19,-94 0,-36 7,-68 21,-95 14,-27 34,-48 59,-62 26,-14 54,-21 85,-21 35,0 64,9 88,27 24,18 41,43 50,75l-45 11c-8,-25 -20,-44 -35,-56 -15,-12 -35,-17 -58,-17 -27,0 -49,6 -67,19 -18,13 -31,30 -38,52 -7,22 -11,44 -11,67 0,30 4,56 13,78 9,22 22,39 40,50 18,11 38,16 59,16 26,0 48,-7 66,-22 18,-15 30,-37 36,-67z"/>
   <path class="fil2" d="M1646 229c0,-47 13,-82 39,-104 22,-19 48,-28 80,-28 35,0 63,11 86,34 22,23 33,54 33,94 0,33 -5,58 -15,77 -10,19 -24,33 -43,44 -19,10 -39,15 -61,15 -36,0 -64,-11 -86,-34 -22,-23 -33,-56 -33,-98z"/>
   <path class="fil1" d="M1690 229c0,32 7,57 21,73 14,16 32,24 54,24 21,0 39,-8 53,-24 14,-16 21,-41 21,-74 0,-31 -7,-55 -21,-71 -14,-16 -32,-24 -53,-24 -22,0 -39,8 -54,24 -14,16 -21,40 -21,73z"/>
   <path class="fil2" d="M1934 356l0 -254 39 0 0 39c10,-18 19,-30 27,-36 8,-6 18,-9 28,-9 15,0 29,5 44,14l-15 40c-10,-6 -21,-9 -31,-9 -9,0 -18,3 -25,8 -7,6 -13,13 -16,23 -5,15 -7,32 -7,50l0 133 -43 0z"/>
   <path class="fil0" d="M1920 453l177 -351 39 0 0 33c9,-13 20,-23 31,-29 12,-6 26,-10 42,-10 22,0 41,6 57,17 17,11 29,27 37,47 8,20 13,42 13,67 0,26 -5,49 -14,70 -9,21 -23,37 -41,48 -18,11 -36,17 -56,17 -14,0 -27,-3 -39,-9 -11,-6 -21,-14 -28,-23l0 124 -220 0z"/>
   <path class="fil1" d="M2136 231c0,33 7,57 20,72 13,16 29,23 48,23 19,0 35,-8 49,-24 14,-16 20,-41 20,-75 0,-32 -7,-56 -20,-72 -13,-16 -29,-24 -48,-24 -18,0 -34,9 -48,26 -14,17 -21,42 -21,75z"/>
  </g>
 </g>
</svg>
